<svg width="51" height="46" viewBox="0 0 51 46" fill="none" xmlns="http://www.w3.org/2000/svg">
<rect x="22" y="26" width="29" height="18" fill="black"/>
<path d="M4.56483 16.6018C3.82221 16.5513 3.07958 16.5007 2.33696 16.4603C1.73715 16.43 1.24208 15.9145 1.2516 15.2575C1.26112 14.6308 1.78477 14.0749 2.38458 14.1052C3.12721 14.1456 3.86983 14.1962 4.61245 14.2467C5.21227 14.2871 5.70733 14.7925 5.69781 15.4495C5.68829 16.056 5.20272 16.6018 4.62195 16.6018C4.60291 16.6018 4.58387 16.6018 4.56483 16.6018Z" fill="white"/>
<path d="M0.270948 24.9711C0.166219 24.6881 0.175729 24.3647 0.289979 24.0816C0.41375 23.7784 0.632723 23.5762 0.908828 23.4448C1.56577 23.1416 2.2132 22.8081 2.88918 22.5554C3.46043 22.333 4.09832 22.6362 4.3173 23.2427C4.52676 23.839 4.24111 24.5365 3.66986 24.7589C2.99388 25.0217 2.34648 25.3451 1.68954 25.6483C1.56577 25.709 1.43249 25.7292 1.30872 25.7292C0.861236 25.7292 0.423272 25.4058 0.261418 24.961L0.270948 24.9711Z" fill="white"/>
<path d="M23.1114 35.847C22.5973 35.8268 22.0831 35.8066 21.569 35.7762C21.3024 35.756 21.0358 35.7358 20.7597 35.7156C20.2266 35.6651 19.7505 35.4427 19.3126 35.1091C19.0079 34.8666 18.7508 34.5431 18.5223 34.2197C18.351 33.9771 18.1986 33.7345 18.0558 33.4818C17.7797 33.0067 17.5703 32.5114 17.4274 31.9757C17.3513 31.8039 17.3037 31.622 17.3037 31.4198C17.3037 31.4198 17.3037 31.3996 17.3037 31.3895C17.2846 31.3592 17.2751 31.3288 17.2561 31.2985C17.1704 31.157 17.0752 31.0256 16.98 30.8942C16.2183 30.0047 15.3995 29.1759 14.6283 28.2864C14.3427 27.963 14.0666 27.6294 13.8 27.2958C13.2859 26.6489 12.8384 25.9616 12.4195 25.244C11.5436 23.7278 10.9152 22.0398 10.5153 20.3114C10.125 18.6537 9.99167 16.9152 10.0774 15.2171C10.1535 13.5493 10.4582 11.8815 11.0009 10.3148C11.277 9.53651 11.6102 8.77843 11.9911 8.05067C12.41 7.25216 12.9241 6.51429 13.4573 5.79664C13.9524 5.13964 14.495 4.52306 15.0568 3.92671C15.6185 3.32024 16.2659 2.81485 16.9514 2.38022C17.6274 1.94558 18.351 1.58171 19.0841 1.28858C19.8648 0.97524 20.6931 0.783193 21.5214 0.631576C22.1974 0.510283 22.8639 0.429421 23.5398 0.368774C24.8823 0.267697 26.2152 0.368775 27.5195 0.742762C28.2622 0.955025 28.9572 1.29869 29.6427 1.66257C29.995 1.84451 30.3377 2.05677 30.6709 2.28925C31.0422 2.54194 31.3755 2.84518 31.6992 3.15852C32.4513 3.86606 33.1178 4.64436 33.7176 5.49341C33.9271 5.79664 34.1365 6.10998 34.3269 6.42332C34.6982 7.02979 34.9934 7.68679 35.2409 8.36401C35.4028 8.81886 35.5551 9.27371 35.6884 9.73867C35.8598 10.3653 35.955 11.0426 36.0026 11.6895C36.0502 12.3263 36.0978 12.963 36.0693 13.5998C36.0502 13.9435 36.0407 14.2872 36.0216 14.6308C36.0026 15.025 35.955 15.4192 35.9264 15.8033C35.8788 16.3997 35.7836 16.9859 35.6789 17.5722C35.5837 18.1685 35.4694 18.775 35.3266 19.3613C35.1647 20.0183 34.9934 20.6652 34.8125 21.312C34.4602 22.5654 34.0127 23.7884 33.5462 24.9913C33.3272 25.5472 33.0797 26.093 32.8131 26.6287C32.5275 27.1847 32.1943 27.7204 31.861 28.246C31.3659 29.0243 30.8137 29.7722 30.2901 30.5404C29.995 31.0054 29.7093 31.4703 29.4618 31.9656C29.2428 32.4407 29.0429 32.9259 28.8429 33.411C28.7382 33.6738 28.6144 33.9366 28.4906 34.1994C28.2145 34.7453 27.729 35.1799 27.2053 35.4225C26.4437 35.7661 25.6249 35.8571 24.8061 35.8773C24.6538 35.8773 24.5109 35.8773 24.3586 35.8773C23.9492 35.8773 23.5398 35.8672 23.1304 35.847H23.1114ZM24.8823 33.5121C25.1584 33.4919 25.4345 33.4717 25.7106 33.4313C25.8344 33.4009 25.9486 33.3807 26.0724 33.3403C26.1581 33.31 26.2437 33.2796 26.3294 33.2392C26.3485 33.2291 26.377 33.219 26.3961 33.1988C26.4056 33.1887 26.4246 33.1786 26.4341 33.1685C26.4437 33.1685 26.4532 33.1482 26.4627 33.1381C26.4817 33.1078 26.5008 33.0876 26.5198 33.0573C26.5579 32.9966 26.5865 32.936 26.615 32.8753C26.815 32.4205 26.9959 31.9454 27.1958 31.4906C27.4338 30.9447 27.7004 30.4191 27.9956 29.9036C28.5668 28.9333 29.2523 28.0337 29.8807 27.1038C30.2711 26.4872 30.6519 25.8605 30.9851 25.2035C31.4992 24.031 31.9372 22.8383 32.3561 21.6254C32.5084 21.1301 32.6608 20.6247 32.8036 20.1193C32.9464 19.6139 33.0702 19.0984 33.1939 18.5931C33.3272 17.9259 33.451 17.2689 33.5557 16.6018C33.6795 15.8741 33.7271 15.1362 33.7842 14.4085C33.7842 14.459 33.7842 14.5095 33.7747 14.5601C33.7938 14.1962 33.8033 13.8323 33.8223 13.4684C33.8318 13.1652 33.8223 12.8519 33.8223 12.5385C33.7842 12.0635 33.7462 11.5884 33.689 11.1133C33.6319 10.7899 33.5653 10.4664 33.4796 10.1531C33.3177 9.61737 33.1273 9.09177 32.9083 8.57627C32.7846 8.29326 32.6417 8.02035 32.4894 7.75755C32.1562 7.22183 31.8039 6.70634 31.4231 6.21106C31.0613 5.76632 30.6614 5.36201 30.2615 4.94759C30.014 4.71511 29.7569 4.48263 29.4808 4.28048C29.2238 4.10864 28.9667 3.94692 28.7001 3.7953C28.2717 3.57293 27.8337 3.35056 27.3862 3.16862C27.0625 3.04733 26.7293 2.94625 26.3961 2.86539C26.0438 2.79464 25.7011 2.73399 25.3488 2.70367C24.9394 2.67334 24.5205 2.66324 24.1111 2.67334C23.7874 2.69356 23.4541 2.70367 23.1399 2.75421C22.702 2.81485 22.264 2.8755 21.8356 2.94625C21.2929 3.04733 20.7597 3.17873 20.2361 3.34046C19.8838 3.46175 19.5411 3.60326 19.1983 3.76498C18.7413 3.99746 18.3034 4.25015 17.8654 4.52306C17.5988 4.705 17.3418 4.90716 17.0942 5.11942C16.6467 5.53384 16.2469 5.97858 15.847 6.43343C15.3519 7.00957 14.8949 7.61604 14.4665 8.25283C14.1713 8.72789 13.8952 9.21306 13.6477 9.70834C13.4192 10.1935 13.2193 10.6888 13.0384 11.1942C12.867 11.7299 12.7146 12.2757 12.6004 12.8316C12.4671 13.5089 12.3814 14.1861 12.3148 14.8633C12.2672 15.49 12.2576 16.1167 12.2767 16.7534C12.3052 17.4105 12.3719 18.0574 12.4671 18.6941C12.5718 19.3208 12.7051 19.9374 12.8765 20.5439C13.0669 21.1806 13.2954 21.8073 13.543 22.4138C13.8095 23.0304 14.1142 23.6368 14.4474 24.213C14.7616 24.7386 15.1044 25.2339 15.4662 25.7089C16.1517 26.558 16.8943 27.3565 17.6369 28.155C17.9606 28.5088 18.2748 28.8625 18.589 29.2264C18.9127 29.6105 19.1888 30.0249 19.3792 30.5C19.4649 30.7022 19.503 30.9346 19.522 31.157C19.5506 31.2177 19.5696 31.2783 19.5887 31.3491C19.5887 31.3592 19.5887 31.3693 19.5982 31.3895C19.6363 31.5108 19.6839 31.6321 19.7315 31.7534C19.8172 31.9353 19.9029 32.1071 20.0076 32.2891C20.1599 32.5317 20.3123 32.7742 20.4932 32.9966C20.5503 33.0573 20.6074 33.128 20.6741 33.1887C20.6931 33.2089 20.7216 33.2291 20.7502 33.2493C20.7597 33.2493 20.7693 33.2695 20.7883 33.2695C20.8073 33.2695 20.8169 33.2897 20.8359 33.2897C20.855 33.2897 20.8645 33.2999 20.8835 33.31C21.0073 33.3302 21.131 33.3504 21.2548 33.3605C22.4735 33.4515 23.6922 33.502 24.9108 33.4818L24.8823 33.5121Z" fill="white"/>
<path d="M23.5493 44.9743C22.9209 44.9036 22.3116 44.752 21.7117 44.5397C21.4356 44.4386 21.1595 44.3274 20.9025 44.1859C20.3979 43.9231 19.9123 43.6401 19.4839 43.2661C18.9698 42.8214 18.5603 42.2351 18.3699 41.5579C18.189 40.9413 18.2462 40.1934 18.5508 39.6374C18.846 39.1017 19.3125 38.7277 19.8361 38.4649C19.6743 38.2021 19.541 37.9191 19.4268 37.626C19.2744 37.2217 19.2268 36.7871 19.2173 36.3625C19.2078 35.9582 19.322 35.564 19.4172 35.1799C19.5886 34.4926 19.9123 33.7446 20.5597 33.4515C21.1119 33.1988 21.7784 33.5526 21.9879 34.1388C22.1592 34.6038 22.0164 35.0991 21.6927 35.4225C21.6546 35.5034 21.6261 35.5842 21.5975 35.6752C21.5499 35.8369 21.5118 36.0088 21.4737 36.1705C21.4832 36.1199 21.4928 36.0694 21.5023 36.0189C21.4737 36.1301 21.4547 36.2412 21.4452 36.3524C21.4452 36.3929 21.4452 36.4434 21.4452 36.4838C21.4452 36.5243 21.4547 36.5748 21.4642 36.6152C21.4642 36.6557 21.4832 36.6961 21.4928 36.7466C21.5118 36.8073 21.5308 36.8679 21.5594 36.9387C21.588 36.9993 21.6261 37.0701 21.6546 37.1307C21.6927 37.2015 21.7403 37.2621 21.7879 37.3329C21.9307 37.5047 22.0735 37.6563 22.2259 37.818C22.3116 37.8989 22.3972 37.9697 22.4734 38.0505C23.5397 38.0202 24.6061 38.0505 25.6629 38.2426C26.396 38.374 27.3386 38.6671 27.6242 39.4858C27.7575 39.8699 27.7385 40.2945 27.5576 40.6482C27.3481 41.0525 26.9863 41.3457 26.5769 41.467C25.9866 41.6489 25.3773 41.6085 24.7775 41.5377C24.2252 41.4771 23.6921 41.3457 23.1684 41.1435C22.9209 41.0525 22.6924 40.9312 22.4544 40.8099C22.2259 40.6988 22.0069 40.5674 21.7974 40.436C21.588 40.4461 21.3785 40.4663 21.1691 40.4966C21.1024 40.5168 21.0262 40.5269 20.9596 40.5471C20.8644 40.5775 20.7787 40.6179 20.693 40.6684C20.7406 40.6482 20.7787 40.628 20.8263 40.6078C20.7597 40.6381 20.693 40.6785 20.6264 40.719C20.5788 40.7493 20.5407 40.7796 20.5026 40.8099C20.5026 40.8099 20.5026 40.8201 20.5026 40.8302C20.5026 40.8504 20.5026 40.8605 20.5026 40.8807C20.5026 40.8807 20.5026 40.8908 20.5026 40.9009C20.5026 40.9211 20.5217 40.9413 20.5312 40.9717C20.5502 41.0222 20.5788 41.0626 20.5978 41.1132C20.6264 41.1536 20.6549 41.194 20.6835 41.2446C20.7216 41.2951 20.7692 41.3355 20.8073 41.3861C20.9025 41.4669 20.9977 41.5478 21.0929 41.6287C21.2548 41.7399 21.4261 41.851 21.5975 41.9521C21.8355 42.0734 22.0831 42.1947 22.3306 42.3059C22.6448 42.4171 22.959 42.5081 23.2827 42.5889C23.4731 42.6293 23.6635 42.6496 23.8539 42.6799C24.1396 42.69 24.4252 42.69 24.7108 42.6799C24.9679 42.6597 25.2154 42.6395 25.4725 42.599C25.8438 42.5283 26.2056 42.4373 26.5674 42.3261C27.1482 42.1543 27.767 42.5889 27.9003 43.1954C28.0431 43.8322 27.6623 44.4386 27.0815 44.6105C26.5198 44.7722 25.9485 44.9137 25.3677 44.9743C25.006 45.0148 24.6346 45.0451 24.2633 45.0451C24.0348 45.0451 23.7968 45.035 23.5778 45.0047L23.5493 44.9743Z" fill="white"/>
<path d="M27.0625 34.2196C26.5294 33.977 26.2152 33.2493 26.4818 32.6731C26.9388 31.6927 27.3101 30.6819 27.6624 29.6509C27.9575 28.7109 28.2051 27.7709 28.4145 26.8106C28.6811 25.3349 28.862 23.8389 29.0143 22.343C29.0429 21.9185 29.0714 21.4939 29.0905 21.0694C29.1095 20.6045 29.1095 20.1395 29.1 19.6746C29.081 19.3107 29.0619 18.9468 29.0238 18.5829C28.9857 18.1887 28.9381 17.7945 28.881 17.4104C28.8429 17.1981 28.8049 16.9859 28.7572 16.7736C28.7192 16.5715 28.662 16.3794 28.6049 16.1773C28.4907 15.8134 28.3764 15.4495 28.2336 15.0957C28.1765 14.9643 28.1098 14.8329 28.0432 14.7116C27.967 14.6005 27.8909 14.4893 27.8147 14.3781C27.7671 14.3174 27.7195 14.2669 27.6624 14.2164C27.6338 14.186 27.6052 14.1658 27.5671 14.1355C27.5291 14.1153 27.5005 14.085 27.4624 14.0647C27.4815 14.0647 27.5005 14.085 27.5196 14.0951C27.5196 14.0951 27.5195 14.0951 27.51 14.0951C27.4815 14.085 27.4529 14.0647 27.4243 14.0546C27.4148 14.0546 27.4053 14.0546 27.3862 14.0546C27.3767 14.0546 27.3672 14.0546 27.3577 14.0546C27.3577 14.0546 27.3482 14.0546 27.3387 14.0546H27.3196C27.3196 14.0546 27.3101 14.0546 27.3006 14.0546C27.272 14.0749 27.2434 14.0951 27.2244 14.1153C27.2054 14.1355 27.1863 14.1557 27.1673 14.1759C27.1006 14.2568 27.034 14.3478 26.9769 14.4387C26.8721 14.6106 26.7769 14.7824 26.6912 14.9542C26.6056 15.1362 26.5294 15.3181 26.4532 15.5C26.6151 15.8336 26.7579 16.1773 26.8721 16.531C27.0245 16.9859 27.1101 17.4508 27.2149 17.9158C27.3577 18.593 27.4243 19.2702 27.4529 19.9576C27.4815 20.6954 27.4529 21.4333 27.4148 22.1813C27.3767 22.7978 27.272 23.4144 27.1673 24.0209C27.0435 24.7284 26.8245 25.4259 26.4723 26.0525C26.1295 26.659 25.5392 27.1846 24.8632 27.2857C24.2634 27.3666 23.616 27.1543 23.1971 26.6792C22.9781 26.4265 22.7972 26.1637 22.6544 25.8605C22.483 25.5067 22.3878 25.1024 22.3307 24.7082C22.2069 23.9198 22.245 23.1112 22.3117 22.3127C22.3688 21.6355 22.4735 20.9683 22.6258 20.3113C22.7115 19.9576 22.7972 19.5937 22.8734 19.2399C22.9495 18.8963 23.0638 18.5627 23.1495 18.2291C23.3018 17.6833 23.4732 17.1375 23.6541 16.5917C23.7493 16.3087 23.8445 16.0358 23.9397 15.7527C23.8159 15.6011 23.6827 15.4495 23.5398 15.3181C23.4161 15.2069 23.2828 15.0957 23.159 14.9846C23.1304 14.9643 23.1019 14.9441 23.0638 14.9239L23.0352 14.9037C23.0352 14.9037 22.9972 14.9037 22.9781 14.9037C22.9686 14.9037 22.9496 14.9037 22.94 14.9138C22.9305 14.9138 22.9115 14.9239 22.9019 14.934C22.8829 14.9441 22.8639 14.9542 22.8543 14.9643C22.8353 14.9744 22.8258 14.9947 22.8067 15.0048C22.7877 15.025 22.7686 15.0452 22.7496 15.0654C22.702 15.1261 22.6544 15.1867 22.6163 15.2474C22.5687 15.3383 22.5211 15.4192 22.4735 15.5102C22.3497 15.7831 22.245 16.0661 22.1498 16.3592C21.9213 17.0769 21.7214 17.8046 21.5309 18.5425C21.3405 19.2803 21.1882 20.0283 21.0359 20.7662C20.9597 21.2311 20.874 21.686 20.7978 22.151C20.7598 22.3733 20.7502 22.5957 20.7217 22.8181C20.6931 23.0607 20.6645 23.3032 20.636 23.5458C20.6074 24.0411 20.5788 24.5263 20.5408 25.0216C20.5217 25.2742 20.5408 25.5371 20.5408 25.7897C20.5408 26.0222 20.5408 26.2547 20.5408 26.4872C20.5693 26.8713 20.5884 27.2655 20.6169 27.6496C20.636 27.9932 20.7026 28.347 20.7502 28.6907C20.8169 29.0849 20.8931 29.4791 20.9787 29.8733C21.074 30.2978 21.1882 30.7122 21.3024 31.1367C21.3977 31.4804 21.5024 31.8241 21.6262 32.1677C21.9403 32.6832 21.8166 33.4009 21.35 33.7648C20.8645 34.1388 20.1599 34.0175 19.8077 33.502C19.5887 33.1785 19.484 32.7843 19.3697 32.4103C19.284 32.1172 19.1983 31.814 19.1126 31.5208C18.9508 30.9245 18.7985 30.318 18.6937 29.7014C18.6366 29.3982 18.589 29.095 18.5509 28.7917C18.5128 28.4784 18.4557 28.155 18.4367 27.8416C18.4081 27.4575 18.3891 27.0734 18.3605 26.6994C18.3415 26.376 18.3605 26.0525 18.3605 25.7291C18.3605 25.4562 18.351 25.1934 18.3605 24.9205C18.3891 24.496 18.4176 24.0714 18.4367 23.6469C18.4748 23.0303 18.5605 22.4138 18.6271 21.7972C18.6652 21.4737 18.7413 21.1402 18.7985 20.8167C18.8461 20.5337 18.9032 20.2507 18.9603 19.9677C19.1031 19.2803 19.265 18.593 19.4268 17.9158C19.5601 17.3397 19.722 16.7736 19.8934 16.2177C19.9886 15.9044 20.0933 15.5809 20.2076 15.2676C20.398 14.7319 20.6265 14.2366 20.9311 13.7615C21.2644 13.2561 21.807 12.8215 22.3688 12.6598C22.6734 12.5688 22.9971 12.5183 23.3113 12.5587C23.6731 12.5991 23.9683 12.7406 24.2825 12.9226C24.5205 13.0641 24.749 13.2561 24.9489 13.4583C25.1869 13.0338 25.463 12.6396 25.8058 12.3161C26.2247 11.9219 26.8055 11.6389 27.3767 11.6591C27.6719 11.6692 27.948 11.7096 28.2241 11.8208C28.5668 11.9623 28.881 12.1645 29.1571 12.4273C29.6713 12.9024 30.0616 13.5391 30.3282 14.2063C30.4805 14.5903 30.6043 14.9846 30.7281 15.3889C30.928 16.0155 31.0518 16.6624 31.1375 17.3093C31.2231 17.9562 31.2898 18.6031 31.3279 19.2601C31.3945 20.5337 31.3279 21.8174 31.1946 23.091C30.947 25.6078 30.5662 28.1246 29.7474 30.5101C29.3952 31.5512 29.0143 32.5923 28.5478 33.5929C28.4145 33.876 28.2146 34.1084 27.9194 34.2297C27.7956 34.2803 27.6624 34.3005 27.5291 34.3005C27.3767 34.3005 27.2244 34.2702 27.0911 34.1994L27.0625 34.2196ZM24.6062 24.7588C24.6538 24.6678 24.7014 24.5869 24.7395 24.496C24.7204 24.5465 24.6919 24.5869 24.6728 24.6375C24.73 24.5162 24.7776 24.3848 24.8156 24.2534C24.7966 24.3039 24.7871 24.3443 24.768 24.3949C24.8442 24.1321 24.9108 23.8794 24.968 23.6166C25.0061 23.3841 25.0536 23.1415 25.0917 22.909C25.1393 22.6462 25.1584 22.3733 25.1869 22.1105C25.225 21.4434 25.2536 20.7864 25.2346 20.1294C25.225 19.8363 25.1965 19.5431 25.1679 19.25C25.1108 19.4623 25.0441 19.6746 24.9965 19.8868C24.9013 20.281 24.8061 20.6853 24.7109 21.0795C24.6062 21.6355 24.53 22.1914 24.4824 22.7574C24.4634 23.1415 24.4539 23.5256 24.4634 23.9097C24.4729 24.0613 24.4919 24.2129 24.511 24.3646C24.53 24.4656 24.5491 24.5667 24.5776 24.6678C24.5586 24.6172 24.549 24.5667 24.5395 24.5263C24.5586 24.6071 24.5871 24.688 24.6157 24.7588H24.6062Z" fill="white"/>
<path d="M6.95462 7.30267C6.31673 7.26224 5.72643 7.0803 5.13614 6.8276C4.58393 6.58502 4.03174 6.33232 3.48906 6.04931C2.94637 5.7764 2.67025 5.10929 2.90827 4.50282C3.13677 3.92668 3.82227 3.61334 4.36496 3.89635C5.01237 4.2198 5.65979 4.53314 6.32625 4.79595C6.46906 4.84648 6.61188 4.88691 6.75469 4.91724C6.82134 4.92735 6.88799 4.93745 6.96415 4.94756C6.97367 4.94756 6.9927 4.94756 7.00222 4.94756C7.60203 4.98799 8.09713 5.49338 8.08761 6.15038C8.07808 6.75685 7.59252 7.30267 7.01175 7.30267C6.9927 7.30267 6.97367 7.30267 6.95462 7.30267Z" fill="white"/>
<path d="M37.326 5.74604C36.9642 5.22044 37.088 4.48257 37.5736 4.10859C37.7069 4.00751 37.8401 3.91654 37.983 3.82557L37.8877 3.88622C38.1162 3.7346 38.3543 3.58298 38.5923 3.44147C39.116 3.12813 39.811 3.36061 40.0966 3.91654C40.3822 4.48257 40.1728 5.20022 39.6491 5.51357C39.4587 5.62475 39.2683 5.74604 39.0874 5.86734C39.0874 5.86734 39.0779 5.86734 39.0684 5.87744C39.0017 5.91788 38.9446 5.95831 38.8779 6.00885C38.6875 6.16046 38.459 6.23122 38.24 6.23122C37.8973 6.23122 37.545 6.05938 37.3356 5.74604H37.326Z" fill="white"/>
<path d="M40.0869 15.6417C39.906 15.6417 39.7252 15.6113 39.5443 15.6113C38.9445 15.6113 38.4494 15.0352 38.4589 14.4085C38.4684 13.7616 38.992 13.2562 39.5919 13.2562C39.7442 13.2562 39.8965 13.2764 40.0489 13.2865C40.2869 13.2967 40.5344 13.3068 40.7724 13.2967C41.2294 13.2967 41.6864 13.2865 42.1434 13.2663C42.7432 13.236 43.2383 13.8627 43.2288 14.4692C43.2288 14.7825 43.0955 15.0756 42.8861 15.2879C42.6671 15.5103 42.391 15.6012 42.0958 15.6113C41.6388 15.6315 41.1818 15.6417 40.7248 15.6417C40.5154 15.6417 40.2964 15.6417 40.0869 15.6315V15.6417Z" fill="white"/>
<path d="M40.801 27.3969C40.2298 27.2857 39.6681 27.1745 39.0968 27.033C38.8493 26.9723 38.6017 26.9016 38.3637 26.8308C38.1257 26.7601 37.9067 26.6691 37.7258 26.4669C37.564 26.285 37.4402 26.0323 37.4212 25.7695C37.3831 25.1327 37.7925 24.5465 38.4018 24.4757C38.5541 24.4555 38.716 24.4757 38.8588 24.5364C39.2111 24.6374 39.5729 24.7385 39.9251 24.8194C40.325 24.9002 40.7249 24.9811 41.1248 25.062C41.7151 25.1732 42.1435 25.7594 42.0578 26.4063C41.9816 26.9622 41.5056 27.407 40.9724 27.407C40.9153 27.407 40.8582 27.407 40.7915 27.3868L40.801 27.3969Z" fill="white"/>
<path d="M38.221 38.6266C37.745 38.2425 37.2784 37.8382 36.831 37.4238C36.5739 37.1812 36.3264 36.9386 36.0979 36.6758C35.7361 36.2715 35.3647 35.7964 35.3647 35.2102C35.3647 34.5734 35.9074 34.0478 36.4977 34.0579C36.9547 34.068 37.3356 34.3813 37.4974 34.7957C37.5165 34.816 37.526 34.8362 37.545 34.8564C37.7164 35.0687 37.9068 35.2607 38.0972 35.4629C38.5923 35.9177 39.0969 36.3625 39.611 36.7769C40.0871 37.1711 40.1632 37.9393 39.7919 38.4244C39.5729 38.7176 39.2493 38.8591 38.9256 38.8591C38.678 38.8591 38.44 38.7782 38.2305 38.6064L38.221 38.6266Z" fill="white"/>
</svg>
