<svg width="37" height="19" viewBox="0 0 37 19" fill="none" xmlns="http://www.w3.org/2000/svg">
<path d="M34.9431 12.8845C33.8931 13.5366 32.8298 14.1907 31.8005 14.8975C31.1721 15.3434 30.5305 15.7912 29.9192 16.2634C29.3957 16.6794 28.6326 16.5606 28.2408 16.0049C27.8489 15.4492 27.9532 14.6329 28.4843 14.223C30.1616 12.9087 31.9581 11.7789 33.7565 10.6633C34.3158 10.3142 35.0728 10.5421 35.3959 11.144C35.6396 11.6061 35.5745 12.1496 35.293 12.5445C35.201 12.6735 35.0806 12.7922 34.9355 12.8784L34.9431 12.8845Z" fill="black"/>
<path d="M19.3845 10.1881C19.1772 10.4469 18.8706 10.6051 18.5479 10.6268C17.9231 10.6638 17.2783 10.1222 17.2782 9.4243C17.2797 8.19294 17.2999 6.96511 17.3483 5.74252C17.3955 4.46841 17.4334 3.19254 17.4807 1.91843C17.5087 1.22574 18.1286 0.69516 18.759 0.741323C19.4269 0.794507 19.8958 1.40572 19.8677 2.09841C19.8293 3.26127 19.8002 4.4259 19.7524 5.587C19.7034 6.69658 19.6826 7.81142 19.6712 8.92802C19.6717 9.04103 19.6723 9.15403 19.6712 9.27699C19.6734 9.38004 19.6663 9.48133 19.6498 9.58087C19.6134 9.79986 19.5301 10.0101 19.3845 10.1881Z" fill="black"/>
<path d="M7.34278 16.2874C7.12122 16.5189 6.82323 16.6591 6.51594 16.6648C6.17856 16.6698 5.89836 16.529 5.65023 16.2931C4.91145 15.6047 4.16639 14.9289 3.45837 14.2092C3.08963 13.833 2.7209 13.4569 2.37382 13.0524C2.04428 12.674 1.74549 12.2642 1.42505 11.8828C1.45731 11.9251 1.49867 11.9644 1.53093 12.0067C1.52812 11.9971 1.52529 11.9874 1.51338 11.9807C1.30163 11.7328 1.16612 11.4388 1.15793 11.1029C1.14975 10.767 1.28016 10.428 1.49891 10.1868C1.93922 9.71421 2.75952 9.65641 3.19775 10.1685C3.45648 10.475 3.69703 10.7874 3.94948 11.1066C4.99981 12.3169 6.17315 13.4022 7.34649 14.4875C7.49719 14.6285 7.59613 14.797 7.65241 14.9901C7.78184 15.4343 7.66571 15.9592 7.36379 16.2911L7.34278 16.2874Z" fill="black"/>
</svg>
