<svg width="31" height="31" viewBox="0 0 31 31" fill="none" xmlns="http://www.w3.org/2000/svg">
<path d="M13.6778 17.3212C14.2074 17.825 14.2074 18.6517 13.6778 19.1554C13.174 19.6592 12.3474 19.6592 11.8436 19.1554C10.6338 17.9438 9.9543 16.3016 9.9543 14.5894C9.9543 12.8772 10.6338 11.235 11.8436 10.0233L16.4161 5.45083C17.6277 4.24103 19.2699 3.56152 20.9821 3.56152C22.6944 3.56152 24.3366 4.24103 25.5482 5.45083C26.758 6.66245 27.4375 8.30467 27.4375 10.0169C27.4375 11.7291 26.758 13.3713 25.5482 14.5829L23.6236 16.5075C23.6365 15.4483 23.4686 14.3892 23.1069 13.3817L23.714 12.7617C24.0761 12.4035 24.3636 11.977 24.5598 11.507C24.756 11.0369 24.857 10.5327 24.857 10.0233C24.857 9.514 24.756 9.00972 24.5598 8.53969C24.3636 8.06965 24.0761 7.64319 23.714 7.285C23.3558 6.9229 22.9294 6.63543 22.4593 6.43924C21.9893 6.24305 21.485 6.14203 20.9757 6.14203C20.4664 6.14203 19.9621 6.24305 19.492 6.43924C19.022 6.63543 18.5956 6.9229 18.2374 7.285L13.6778 11.8446C13.3157 12.2028 13.0282 12.6292 12.832 13.0993C12.6358 13.5693 12.5348 14.0736 12.5348 14.5829C12.5348 15.0923 12.6358 15.5965 12.832 16.0666C13.0282 16.5366 13.3157 16.9631 13.6778 17.3212ZM17.3203 11.8446C17.824 11.3408 18.6507 11.3408 19.1544 11.8446C20.3642 13.0562 21.0437 14.6984 21.0437 16.4106C21.0437 18.1228 20.3642 19.765 19.1544 20.9767L14.5819 25.5492C13.3703 26.759 11.7281 27.4385 10.0159 27.4385C8.30369 27.4385 6.66148 26.759 5.44986 25.5492C4.24005 24.3375 3.56055 22.6953 3.56055 20.9831C3.56055 19.2709 4.24005 17.6287 5.44986 16.4171L7.37444 14.4925C7.36152 15.5517 7.52944 16.6108 7.89111 17.6312L7.28402 18.2383C6.92192 18.5965 6.63445 19.023 6.43826 19.493C6.24207 19.9631 6.14106 20.4673 6.14106 20.9767C6.14106 21.486 6.24207 21.9903 6.43826 22.4603C6.63445 22.9303 6.92192 23.3568 7.28402 23.715C7.64222 24.0771 8.06867 24.3646 8.53871 24.5608C9.00874 24.7569 9.51302 24.858 10.0224 24.858C10.5317 24.858 11.036 24.7569 11.506 24.5608C11.976 24.3646 12.4025 24.0771 12.7607 23.715L17.3203 19.1554C17.6824 18.7972 17.9698 18.3708 18.166 17.9007C18.3622 17.4307 18.4632 16.9264 18.4632 16.4171C18.4632 15.9077 18.3622 15.4035 18.166 14.9334C17.9698 14.4634 17.6824 14.0369 17.3203 13.6787C17.1948 13.5612 17.0948 13.4192 17.0265 13.2614C16.9581 13.1037 16.9228 12.9336 16.9228 12.7617C16.9228 12.5897 16.9581 12.4197 17.0265 12.2619C17.0948 12.1042 17.1948 11.9621 17.3203 11.8446Z" fill="#111111"/>
</svg>
